<svg width="151" height="139" viewBox="0 0 151 139" fill="none" xmlns="http://www.w3.org/2000/svg">
<path d="M4 4C4 1.79086 5.79086 0 8 0H143C145.209 0 147 1.79086 147 4V120.007H4V4Z" fill="#383843"/>
<g filter="url(#filter0_d_422_2111)">
<path d="M4 4C4 1.79086 5.79086 0 8 0H143C145.209 0 147 1.79086 147 4V131H4V4Z" fill="#B0B0B0"/>
</g>
<mask id="path-3-outside-1_422_2111" maskUnits="userSpaceOnUse" x="120.202" y="4.81445" width="20" height="19" fill="black">
<rect fill="white" x="120.202" y="4.81445" width="20" height="19"/>
<path d="M130.373 17.4854C129.435 17.3242 128.849 16.9946 128.388 16.5332C126.608 14.7607 126.623 12.2705 128.381 10.5127L130.878 8.00781C132.636 6.25 135.126 6.23535 136.906 8.01514C138.678 9.79492 138.664 12.2778 136.913 14.0356L134.76 16.1816C134.833 15.7056 134.789 15.1636 134.584 14.6948L136.02 13.2593C137.287 11.9922 137.302 10.1831 136.02 8.90137C134.738 7.61963 132.936 7.62695 131.655 8.90137L129.267 11.2891C128 12.5562 127.992 14.3726 129.274 15.6543C129.75 16.1304 130.38 16.4233 131.347 16.4966L130.373 17.4854ZM130.556 11.4502C131.493 11.6113 132.079 11.9409 132.541 12.4023C134.321 14.1748 134.306 16.665 132.548 18.4229L130.043 20.9351C128.293 22.6855 125.803 22.7002 124.023 20.9204C122.25 19.1479 122.265 16.6577 124.015 14.8999L126.169 12.7539C126.088 13.23 126.139 13.7793 126.345 14.2407L124.909 15.6763C123.635 16.9507 123.627 18.7524 124.909 20.0415C126.191 21.3159 127.992 21.3086 129.267 20.0342L131.662 17.6465C132.929 16.3794 132.936 14.563 131.655 13.2812C131.178 12.8052 130.549 12.5195 129.582 12.439L130.556 11.4502Z"/>
</mask>
<path d="M130.373 17.4854C129.435 17.3242 128.849 16.9946 128.388 16.5332C126.608 14.7607 126.623 12.2705 128.381 10.5127L130.878 8.00781C132.636 6.25 135.126 6.23535 136.906 8.01514C138.678 9.79492 138.664 12.2778 136.913 14.0356L134.76 16.1816C134.833 15.7056 134.789 15.1636 134.584 14.6948L136.02 13.2593C137.287 11.9922 137.302 10.1831 136.02 8.90137C134.738 7.61963 132.936 7.62695 131.655 8.90137L129.267 11.2891C128 12.5562 127.992 14.3726 129.274 15.6543C129.75 16.1304 130.38 16.4233 131.347 16.4966L130.373 17.4854ZM130.556 11.4502C131.493 11.6113 132.079 11.9409 132.541 12.4023C134.321 14.1748 134.306 16.665 132.548 18.4229L130.043 20.9351C128.293 22.6855 125.803 22.7002 124.023 20.9204C122.25 19.1479 122.265 16.6577 124.015 14.8999L126.169 12.7539C126.088 13.23 126.139 13.7793 126.345 14.2407L124.909 15.6763C123.635 16.9507 123.627 18.7524 124.909 20.0415C126.191 21.3159 127.992 21.3086 129.267 20.0342L131.662 17.6465C132.929 16.3794 132.936 14.563 131.655 13.2812C131.178 12.8052 130.549 12.5195 129.582 12.439L130.556 11.4502Z" fill="black" fill-opacity="0.5"/>
<path d="M130.373 17.4854L130.119 18.9637L130.891 19.0965L131.441 18.5381L130.373 17.4854ZM128.388 16.5332L129.449 15.4725L129.446 15.4704L128.388 16.5332ZM128.381 10.5127L129.441 11.5734L129.443 11.5718L128.381 10.5127ZM130.878 8.00781L129.818 6.94715L129.816 6.94871L130.878 8.00781ZM136.906 8.01514L137.969 6.95666L137.967 6.95448L136.906 8.01514ZM136.913 14.0356L137.972 15.0981L137.976 15.0941L136.913 14.0356ZM134.76 16.1816L133.277 15.9536L132.583 20.4692L135.819 17.2441L134.76 16.1816ZM134.584 14.6948L133.524 13.6342L132.8 14.3581L133.21 15.2961L134.584 14.6948ZM131.655 8.90137L130.597 7.83767L130.594 7.84071L131.655 8.90137ZM131.347 16.4966L132.415 17.5493L134.685 15.2452L131.46 15.0009L131.347 16.4966ZM130.556 11.4502L130.81 9.97187L130.038 9.8391L129.487 10.3975L130.556 11.4502ZM132.541 12.4023L131.48 13.463L131.482 13.4652L132.541 12.4023ZM132.548 18.4229L131.487 17.3622L131.486 17.3637L132.548 18.4229ZM130.043 20.9351L131.104 21.9957L131.105 21.9942L130.043 20.9351ZM124.015 14.8999L122.957 13.8374L122.953 13.8415L124.015 14.8999ZM126.169 12.7539L127.648 13.0042L128.43 8.38283L125.11 11.6914L126.169 12.7539ZM126.345 14.2407L127.405 15.3014L128.134 14.5729L127.715 13.6315L126.345 14.2407ZM124.909 20.0415L123.845 21.0992L123.851 21.1052L124.909 20.0415ZM129.267 20.0342L128.208 18.9719L128.206 18.9735L129.267 20.0342ZM131.662 17.6465L132.721 18.7088L132.723 18.7071L131.662 17.6465ZM129.582 12.439L128.513 11.3862L126.266 13.6678L129.457 13.9338L129.582 12.439ZM130.627 16.007C129.963 15.8928 129.669 15.6926 129.449 15.4725L127.327 17.5939C128.03 18.2967 128.908 18.7556 130.119 18.9637L130.627 16.007ZM129.446 15.4704C128.814 14.8407 128.557 14.1488 128.558 13.5187C128.558 12.8874 128.818 12.1971 129.441 11.5734L127.32 9.45204C126.186 10.5861 125.559 12.0198 125.558 13.5162C125.556 15.0138 126.182 16.4533 127.329 17.596L129.446 15.4704ZM129.443 11.5718L131.94 9.06692L129.816 6.94871L127.318 9.45359L129.443 11.5718ZM131.939 9.06847C132.563 8.44483 133.253 8.18542 133.885 8.18487C134.517 8.18433 135.211 8.44175 135.845 9.0758L137.967 6.95448C136.821 5.80874 135.381 5.18359 133.883 5.18488C132.385 5.18616 130.952 5.81298 129.818 6.94715L131.939 9.06847ZM135.843 9.07361C136.475 9.70789 136.731 10.4016 136.731 11.0323C136.73 11.664 136.472 12.3533 135.85 12.9772L137.976 15.0941C139.105 13.9602 139.73 12.5291 139.731 11.0349C139.732 9.53976 139.11 8.10216 137.969 6.95667L135.843 9.07361ZM135.855 12.9732L133.701 15.1192L135.819 17.2441L137.972 15.0981L135.855 12.9732ZM136.243 16.4097C136.352 15.6995 136.295 14.8633 135.958 14.0936L133.21 15.2961C133.283 15.4638 133.315 15.7116 133.277 15.9536L136.243 16.4097ZM135.645 15.7555L137.08 14.3199L134.959 12.1986L133.524 13.6342L135.645 15.7555ZM137.08 14.3199C137.971 13.4299 138.473 12.2894 138.476 11.0894C138.478 9.88781 137.98 8.74057 137.08 7.84071L134.959 9.96203C135.341 10.3439 135.476 10.7421 135.476 11.0823C135.475 11.4239 135.336 11.8216 134.959 12.1986L137.08 14.3199ZM137.08 7.84071C136.183 6.94312 135.039 6.44138 133.835 6.44281C132.633 6.44424 131.492 6.9476 130.597 7.83767L132.712 9.96506C133.099 9.58072 133.499 9.44321 133.839 9.44281C134.177 9.44241 134.575 9.57787 134.959 9.96203L137.08 7.84071ZM130.594 7.84071L128.206 10.2284L130.328 12.3497L132.715 9.96203L130.594 7.84071ZM128.206 10.2284C126.353 12.0813 126.346 14.8474 128.214 16.715L130.335 14.5936C129.639 13.8977 129.646 13.031 130.328 12.3497L128.206 10.2284ZM128.214 16.715C128.991 17.492 129.982 17.8975 131.234 17.9923L131.46 15.0009C130.778 14.9492 130.51 14.7688 130.335 14.5936L128.214 16.715ZM130.278 15.4439L129.304 16.4326L131.441 18.5381L132.415 17.5493L130.278 15.4439ZM130.302 12.9285C130.966 13.0427 131.26 13.243 131.48 13.463L133.601 11.3417C132.899 10.6389 132.021 10.18 130.81 9.97187L130.302 12.9285ZM131.482 13.4652C132.115 14.0949 132.372 14.7867 132.371 15.4168C132.371 16.0481 132.111 16.7384 131.487 17.3622L133.609 19.4835C134.743 18.3495 135.37 16.9157 135.371 15.4194C135.372 13.9218 134.747 12.4823 133.599 11.3395L131.482 13.4652ZM131.486 17.3637L128.981 19.8759L131.105 21.9942L133.61 19.482L131.486 17.3637ZM128.983 19.8744C128.364 20.4932 127.676 20.7516 127.044 20.7516C126.413 20.7516 125.717 20.4939 125.083 19.8597L122.962 21.9811C124.108 23.1268 125.548 23.7516 127.044 23.7516C128.539 23.7516 129.972 23.1274 131.104 21.9957L128.983 19.8744ZM125.083 19.8597C124.454 19.2306 124.197 18.5381 124.198 17.906C124.199 17.2725 124.458 16.5816 125.078 15.9583L122.953 13.8415C121.823 14.976 121.199 16.4091 121.198 17.9034C121.197 19.3989 121.819 20.8378 122.962 21.9811L125.083 19.8597ZM125.074 15.9624L127.228 13.8164L125.11 11.6914L122.957 13.8374L125.074 15.9624ZM124.69 12.5036C124.565 13.2406 124.637 14.0923 124.974 14.8499L127.715 13.6315C127.642 13.4662 127.611 13.2194 127.648 13.0042L124.69 12.5036ZM125.284 13.1801L123.848 14.6156L125.97 16.7369L127.405 15.3014L125.284 13.1801ZM123.848 14.6156C122.956 15.5083 122.452 16.649 122.45 17.8516C122.449 19.0546 122.95 20.199 123.845 21.0991L125.973 18.9839C125.586 18.5949 125.45 18.194 125.45 17.8552C125.451 17.516 125.588 17.1187 125.97 16.7369L123.848 14.6156ZM123.851 21.1052C124.749 21.9981 125.893 22.4965 127.094 22.4936C128.295 22.4908 129.435 21.9874 130.328 21.0948L128.206 18.9735C127.824 19.3553 127.426 19.4928 127.087 19.4937C126.748 19.4945 126.35 19.3593 125.967 18.9778L123.851 21.1052ZM130.326 21.0965L132.721 18.7088L130.603 16.5842L128.208 18.9719L130.326 21.0965ZM132.723 18.7071C134.575 16.8543 134.583 14.0881 132.715 12.2206L130.594 14.3419C131.29 15.0379 131.283 15.9045 130.601 16.5858L132.723 18.7071ZM132.715 12.2206C131.933 11.4382 130.94 11.0469 129.706 10.9441L129.457 13.9338C130.157 13.9921 130.424 14.1722 130.594 14.3419L132.715 12.2206ZM130.65 13.4917L131.624 12.5029L129.487 10.3975L128.513 11.3862L130.65 13.4917Z" fill="#D0D0D0" fill-opacity="0.9" mask="url(#path-3-outside-1_422_2111)"/>
<defs>
<filter id="filter0_d_422_2111" x="0" y="0" width="151" height="139" filterUnits="userSpaceOnUse" color-interpolation-filters="sRGB">
<feFlood flood-opacity="0" result="BackgroundImageFix"/>
<feColorMatrix in="SourceAlpha" type="matrix" values="0 0 0 0 0 0 0 0 0 0 0 0 0 0 0 0 0 0 127 0" result="hardAlpha"/>
<feOffset dy="4"/>
<feGaussianBlur stdDeviation="2"/>
<feComposite in2="hardAlpha" operator="out"/>
<feColorMatrix type="matrix" values="0 0 0 0 0 0 0 0 0 0 0 0 0 0 0 0 0 0 0.25 0"/>
<feBlend mode="normal" in2="BackgroundImageFix" result="effect1_dropShadow_422_2111"/>
<feBlend mode="normal" in="SourceGraphic" in2="effect1_dropShadow_422_2111" result="shape"/>
</filter>
</defs>
</svg>
