<svg width="173" height="227" viewBox="0 0 173 227" fill="none" xmlns="http://www.w3.org/2000/svg">
<rect y="1" width="173" height="226" rx="4" fill="#383843"/>
<path d="M0 4.00001C0 1.79087 1.79086 0 4 0H169C171.209 0 173 1.79086 173 4V173H0V4.00001Z" fill="#b0b0b0"/>
<path d="M9.03223 194V192.811L12.2725 189.502C13.6123 188.148 13.9883 187.649 13.9883 186.891V186.87C13.9883 185.961 13.3662 185.305 12.3408 185.305C11.2949 185.305 10.5908 185.995 10.5908 187.014L10.584 187.041L8.94336 187.034L8.93652 187.014C8.93652 185.175 10.3721 183.89 12.4297 183.89C14.3506 183.89 15.7314 185.059 15.7314 186.72V186.74C15.7314 187.861 15.1914 188.75 13.3936 190.479L11.418 192.394V192.537H15.8818V194H9.03223ZM21.0451 194.246C18.7004 194.246 17.2922 192.257 17.2922 189.071V189.058C17.2922 185.872 18.7004 183.89 21.0451 183.89C23.3899 183.89 24.8117 185.872 24.8117 189.058V189.071C24.8117 192.257 23.3899 194.246 21.0451 194.246ZM21.0451 192.817C22.3029 192.817 23.0344 191.409 23.0344 189.071V189.058C23.0344 186.72 22.3029 185.325 21.0451 185.325C19.7873 185.325 19.0695 186.72 19.0695 189.058V189.071C19.0695 191.409 19.7873 192.817 21.0451 192.817ZM26.3315 194V192.811L29.5717 189.502C30.9115 188.148 31.2875 187.649 31.2875 186.891V186.87C31.2875 185.961 30.6654 185.305 29.6401 185.305C28.5942 185.305 27.8901 185.995 27.8901 187.014L27.8832 187.041L26.2426 187.034L26.2358 187.014C26.2358 185.175 27.6713 183.89 29.7289 183.89C31.6498 183.89 33.0307 185.059 33.0307 186.72V186.74C33.0307 187.861 32.4906 188.75 30.6928 190.479L28.7172 192.394V192.537H33.1811V194H26.3315ZM38.2965 194.198C36.1364 194.198 34.7213 193.022 34.5914 191.334L34.5846 191.252H36.2662L36.2731 191.327C36.3688 192.161 37.1412 192.756 38.2965 192.756C39.4381 192.756 40.1969 192.12 40.1969 191.204V191.19C40.1969 190.151 39.4313 189.577 38.1666 189.577H37.0045V188.265H38.1324C39.2194 188.265 39.944 187.649 39.944 186.788V186.774C39.944 185.872 39.3356 185.339 38.2828 185.339C37.2438 185.339 36.526 185.893 36.4371 186.774L36.4303 186.843H34.7897L34.7965 186.768C34.9469 185.059 36.2936 183.938 38.2828 183.938C40.3131 183.938 41.6324 184.997 41.6324 186.542V186.556C41.6324 187.779 40.7506 188.593 39.568 188.839V188.873C41.0172 189.01 41.9811 189.871 41.9811 191.238V191.252C41.9811 192.988 40.484 194.198 38.2965 194.198ZM44.2323 194.137C43.6102 194.137 43.1453 193.665 43.1453 193.057C43.1453 192.448 43.6102 191.977 44.2323 191.977C44.8612 191.977 45.3192 192.448 45.3192 193.057C45.3192 193.665 44.8612 194.137 44.2323 194.137ZM50.1612 194.246C47.8164 194.246 46.4082 192.257 46.4082 189.071V189.058C46.4082 185.872 47.8164 183.89 50.1612 183.89C52.5059 183.89 53.9278 185.872 53.9278 189.058V189.071C53.9278 192.257 52.5059 194.246 50.1612 194.246ZM50.1612 192.817C51.419 192.817 52.1504 191.409 52.1504 189.071V189.058C52.1504 186.72 51.419 185.325 50.1612 185.325C48.9034 185.325 48.1856 186.72 48.1856 189.058V189.071C48.1856 191.409 48.9034 192.817 50.1612 192.817ZM59.1321 194.198C56.8625 194.198 55.2834 193.022 55.2834 191.334V191.32C55.2834 190.056 56.2063 189.078 57.5188 188.812V188.771C56.3909 188.47 55.6389 187.643 55.6389 186.583V186.569C55.6389 185.052 57.0881 183.938 59.1321 183.938C61.176 183.938 62.6252 185.052 62.6252 186.569V186.583C62.6252 187.643 61.8733 188.47 60.7454 188.771V188.812C62.0647 189.078 62.9807 190.056 62.9807 191.32V191.334C62.9807 193.022 61.4016 194.198 59.1321 194.198ZM59.1321 188.21C60.1643 188.21 60.8821 187.608 60.8821 186.747V186.733C60.8821 185.872 60.1643 185.271 59.1321 185.271C58.0999 185.271 57.3821 185.872 57.3821 186.733V186.747C57.3821 187.608 58.0999 188.21 59.1321 188.21ZM59.1321 192.852C60.3147 192.852 61.1555 192.168 61.1555 191.218V191.204C61.1555 190.247 60.3215 189.557 59.1321 189.557C57.9358 189.557 57.1086 190.247 57.1086 191.204V191.218C57.1086 192.168 57.9495 192.852 59.1321 192.852ZM65.2251 194.137C64.603 194.137 64.1381 193.665 64.1381 193.057C64.1381 192.448 64.603 191.977 65.2251 191.977C65.854 191.977 66.312 192.448 66.312 193.057C66.312 193.665 65.854 194.137 65.2251 194.137ZM69.9782 194V185.872H69.862L67.4079 187.608V185.947L69.985 184.136H71.7419V194H69.9782ZM77.6913 194.246C75.3466 194.246 73.9384 192.257 73.9384 189.071V189.058C73.9384 185.872 75.3466 183.89 77.6913 183.89C80.036 183.89 81.4579 185.872 81.4579 189.058V189.071C81.4579 192.257 80.036 194.246 77.6913 194.246ZM77.6913 192.817C78.9491 192.817 79.6805 191.409 79.6805 189.071V189.058C79.6805 186.72 78.9491 185.325 77.6913 185.325C76.4335 185.325 75.7157 186.72 75.7157 189.058V189.071C75.7157 191.409 76.4335 192.817 77.6913 192.817ZM88.7151 194V185.872H88.5989L86.1448 187.608V185.947L88.722 184.136H90.4788V194H88.7151ZM96.4966 194.198C94.2271 194.198 92.6479 193.022 92.6479 191.334V191.32C92.6479 190.056 93.5708 189.078 94.8833 188.812V188.771C93.7554 188.47 93.0034 187.643 93.0034 186.583V186.569C93.0034 185.052 94.4526 183.938 96.4966 183.938C98.5405 183.938 99.9897 185.052 99.9897 186.569V186.583C99.9897 187.643 99.2378 188.47 98.1099 188.771V188.812C99.4292 189.078 100.345 190.056 100.345 191.32V191.334C100.345 193.022 98.7661 194.198 96.4966 194.198ZM96.4966 188.21C97.5288 188.21 98.2466 187.608 98.2466 186.747V186.733C98.2466 185.872 97.5288 185.271 96.4966 185.271C95.4644 185.271 94.7466 185.872 94.7466 186.733V186.747C94.7466 187.608 95.4644 188.21 96.4966 188.21ZM96.4966 192.852C97.6792 192.852 98.52 192.168 98.52 191.218V191.204C98.52 190.247 97.686 189.557 96.4966 189.557C95.3003 189.557 94.4731 190.247 94.4731 191.204V191.218C94.4731 192.168 95.314 192.852 96.4966 192.852ZM103.109 187.608C102.487 187.608 102.022 187.13 102.022 186.528C102.022 185.92 102.487 185.448 103.109 185.448C103.738 185.448 104.196 185.92 104.196 186.528C104.196 187.13 103.738 187.608 103.109 187.608ZM103.109 192.681C102.487 192.681 102.022 192.209 102.022 191.601C102.022 190.992 102.487 190.521 103.109 190.521C103.738 190.521 104.196 190.992 104.196 191.601C104.196 192.209 103.738 192.681 103.109 192.681ZM106.092 194V192.811L109.332 189.502C110.672 188.148 111.048 187.649 111.048 186.891V186.87C111.048 185.961 110.426 185.305 109.4 185.305C108.354 185.305 107.65 185.995 107.65 187.014L107.643 187.041L106.003 187.034L105.996 187.014C105.996 185.175 107.432 183.89 109.489 183.89C111.41 183.89 112.791 185.059 112.791 186.72V186.74C112.791 187.861 112.251 188.75 110.453 190.479L108.477 192.394V192.537H112.941V194H106.092ZM118.904 194V192.106H114.078V190.664C115.357 188.442 116.758 186.173 118.098 184.136H120.593V190.65H121.919V192.106H120.593V194H118.904ZM115.719 190.691H118.932V185.544H118.829C117.817 187.089 116.676 188.914 115.719 190.589V190.691Z" fill="#EEEEEE"/>
<mask id="path-4-outside-1_524_1940" maskUnits="userSpaceOnUse" x="142" y="8" width="22" height="23" fill="black">
<rect fill="white" x="142" y="8" width="22" height="23"/>
<path d="M152.886 23.2051C151.761 23.0117 151.058 22.6162 150.504 22.0625C148.368 19.9355 148.386 16.9473 150.495 14.8379L153.492 11.832C155.602 9.72266 158.59 9.70508 160.726 11.8408C162.853 13.9766 162.835 16.9561 160.734 19.0654L158.15 21.6406C158.238 21.0693 158.186 20.4189 157.939 19.8564L159.662 18.1338C161.183 16.6133 161.2 14.4424 159.662 12.9043C158.124 11.3662 155.962 11.375 154.424 12.9043L151.559 15.7695C150.038 17.29 150.029 19.4697 151.567 21.0078C152.139 21.5791 152.895 21.9307 154.055 22.0186L152.886 23.2051ZM153.105 15.9629C154.23 16.1562 154.934 16.5518 155.487 17.1055C157.623 19.2324 157.605 22.2207 155.496 24.3301L152.49 27.3447C150.39 29.4453 147.401 29.4629 145.266 27.3271C143.139 25.2002 143.156 22.2119 145.257 20.1025L147.841 17.5273C147.744 18.0986 147.806 18.7578 148.052 19.3115L146.329 21.0342C144.8 22.5635 144.791 24.7256 146.329 26.2725C147.867 27.8018 150.029 27.793 151.559 26.2637L154.433 23.3984C155.953 21.8779 155.962 19.6982 154.424 18.1602C153.853 17.5889 153.097 17.2461 151.937 17.1494L153.105 15.9629Z"/>
</mask>
<path d="M152.886 23.2051C151.761 23.0117 151.058 22.6162 150.504 22.0625C148.368 19.9355 148.386 16.9473 150.495 14.8379L153.492 11.832C155.602 9.72266 158.59 9.70508 160.726 11.8408C162.853 13.9766 162.835 16.9561 160.734 19.0654L158.15 21.6406C158.238 21.0693 158.186 20.4189 157.939 19.8564L159.662 18.1338C161.183 16.6133 161.2 14.4424 159.662 12.9043C158.124 11.3662 155.962 11.375 154.424 12.9043L151.559 15.7695C150.038 17.29 150.029 19.4697 151.567 21.0078C152.139 21.5791 152.895 21.9307 154.055 22.0186L152.886 23.2051ZM153.105 15.9629C154.23 16.1562 154.934 16.5518 155.487 17.1055C157.623 19.2324 157.605 22.2207 155.496 24.3301L152.49 27.3447C150.39 29.4453 147.401 29.4629 145.266 27.3271C143.139 25.2002 143.156 22.2119 145.257 20.1025L147.841 17.5273C147.744 18.0986 147.806 18.7578 148.052 19.3115L146.329 21.0342C144.8 22.5635 144.791 24.7256 146.329 26.2725C147.867 27.8018 150.029 27.793 151.559 26.2637L154.433 23.3984C155.953 21.8779 155.962 19.6982 154.424 18.1602C153.853 17.5889 153.097 17.2461 151.937 17.1494L153.105 15.9629Z" fill="black" fill-opacity="0.5"/>
<path d="M152.886 23.2051L152.632 24.6834L153.404 24.8162L153.954 24.2578L152.886 23.2051ZM150.504 22.0625L151.565 21.0018L151.562 20.9997L150.504 22.0625ZM150.495 14.8379L151.556 15.8986L151.557 15.897L150.495 14.8379ZM153.492 11.832L152.432 10.7714L152.43 10.7729L153.492 11.832ZM160.726 11.8408L161.788 10.7823L161.786 10.7802L160.726 11.8408ZM160.734 19.0654L161.793 20.1279L161.797 20.1239L160.734 19.0654ZM158.15 21.6406L156.668 21.4125L155.973 25.9282L159.209 22.7031L158.15 21.6406ZM157.939 19.8564L156.879 18.7958L156.155 19.5197L156.565 20.4577L157.939 19.8564ZM154.424 12.9043L153.366 11.8406L153.363 11.8436L154.424 12.9043ZM154.055 22.0186L155.123 23.0713L157.393 20.7672L154.168 20.5228L154.055 22.0186ZM153.105 15.9629L153.36 14.4846L152.587 14.3518L152.037 14.9102L153.105 15.9629ZM155.487 17.1055L154.427 18.1661L154.429 18.1683L155.487 17.1055ZM155.496 24.3301L154.435 23.2694L154.434 23.271L155.496 24.3301ZM152.49 27.3447L153.551 28.4054L153.552 28.4038L152.49 27.3447ZM145.257 20.1025L144.198 19.0401L144.194 19.0441L145.257 20.1025ZM147.841 17.5273L149.32 17.7776L150.102 13.1563L146.782 16.4649L147.841 17.5273ZM148.052 19.3115L149.112 20.3722L149.841 19.6437L149.422 18.7023L148.052 19.3115ZM146.329 26.2725L145.265 27.3301L145.271 27.3362L146.329 26.2725ZM151.559 26.2637L150.5 25.2014L150.498 25.203L151.559 26.2637ZM154.433 23.3984L155.492 24.4607L155.493 24.4591L154.433 23.3984ZM151.937 17.1494L150.868 16.0967L148.62 18.3783L151.812 18.6442L151.937 17.1494ZM153.14 21.7268C152.288 21.5803 151.877 21.3142 151.565 21.0018L149.443 23.1232C150.238 23.9183 151.233 24.4431 152.632 24.6834L153.14 21.7268ZM151.562 20.9997C150.752 20.1927 150.407 19.2877 150.408 18.4449C150.408 17.6008 150.756 16.6981 151.556 15.8986L149.434 13.7772C148.125 15.0871 147.409 16.7332 147.408 18.4423C147.406 20.1527 148.12 21.8053 149.445 23.1253L151.562 20.9997ZM151.557 15.897L154.554 12.8911L152.43 10.7729L149.433 13.7788L151.557 15.897ZM154.553 12.8927C155.352 12.0933 156.255 11.7452 157.1 11.7445C157.945 11.7438 158.853 12.0895 159.665 12.9015L161.786 10.7802C160.463 9.45644 158.809 8.74304 157.098 8.74451C155.388 8.74598 153.741 9.46142 152.432 10.7714L154.553 12.8927ZM159.663 12.8993C160.472 13.7116 160.816 14.6184 160.815 15.4617C160.815 16.306 160.468 17.2073 159.672 18.007L161.797 20.1239C163.101 18.8142 163.814 17.1711 163.815 15.4643C163.817 13.7566 163.106 12.1058 161.788 10.7823L159.663 12.8993ZM159.676 18.003L157.092 20.5782L159.209 22.7031L161.793 20.1279L159.676 18.003ZM159.633 21.8687C159.757 21.0633 159.691 20.1187 159.314 19.2552L156.565 20.4577C156.68 20.7192 156.72 21.0754 156.668 21.4125L159.633 21.8687ZM159 20.9171L160.723 19.1944L158.601 17.0731L156.879 18.7958L159 20.9171ZM160.723 19.1944C161.74 18.1777 162.306 16.8834 162.309 15.5292C162.312 14.1735 161.751 12.8717 160.723 11.8436L158.601 13.965C159.112 14.475 159.31 15.0277 159.309 15.5221C159.308 16.0179 159.105 16.5694 158.601 17.0731L160.723 19.1944ZM160.723 11.8436C159.697 10.8179 158.399 10.2524 157.041 10.254C155.685 10.2556 154.39 10.8231 153.366 11.8406L155.481 13.968C155.996 13.4562 156.551 13.2546 157.045 13.254C157.537 13.2534 158.089 13.4526 158.601 13.965L160.723 11.8436ZM153.363 11.8436L150.498 14.7089L152.619 16.8302L155.484 13.965L153.363 11.8436ZM150.498 14.7089C148.392 16.8152 148.383 19.9446 150.507 22.0685L152.628 19.9472C151.676 18.9949 151.685 17.7649 152.619 16.8302L150.498 14.7089ZM150.507 22.0685C151.379 22.9407 152.496 23.4048 153.941 23.5143L154.168 20.5228C153.293 20.4565 152.898 20.2175 152.628 19.9472L150.507 22.0685ZM152.986 20.9658L151.817 22.1524L153.954 24.2578L155.123 23.0713L152.986 20.9658ZM152.851 17.4412C153.703 17.5876 154.114 17.8538 154.427 18.1661L156.548 16.0448C155.753 15.2497 154.758 14.7249 153.36 14.4846L152.851 17.4412ZM154.429 18.1683C155.239 18.9753 155.584 19.8802 155.584 20.7231C155.583 21.5672 155.235 22.4699 154.435 23.2694L156.557 25.3907C157.867 24.0809 158.582 22.4348 158.584 20.7257C158.585 19.0153 157.871 17.3626 156.546 16.0426L154.429 18.1683ZM154.434 23.271L151.428 26.2856L153.552 28.4038L156.558 25.3892L154.434 23.271ZM151.43 26.2841C150.636 27.0779 149.736 27.4246 148.891 27.4246C148.047 27.4246 147.138 27.0786 146.326 26.2665L144.205 28.3878C145.529 29.7115 147.182 30.4246 148.891 30.4246C150.599 30.4246 152.244 29.7121 153.551 28.4054L151.43 26.2841ZM146.326 26.2665C145.52 25.4601 145.175 24.5545 145.176 23.7095C145.177 22.8634 145.524 21.96 146.32 21.161L144.194 19.0441C142.889 20.3544 142.177 21.9999 142.176 23.707C142.174 25.4153 142.884 27.0673 144.205 28.3878L146.326 26.2665ZM146.316 21.165L148.9 18.5898L146.782 16.4649L144.198 19.0401L146.316 21.165ZM146.362 17.2771C146.221 18.1092 146.303 19.0709 146.681 19.9207L149.422 18.7023C149.308 18.4448 149.267 18.088 149.32 17.7776L146.362 17.2771ZM146.991 18.2509L145.268 19.9735L147.39 22.0948L149.112 20.3722L146.991 18.2509ZM145.268 19.9735C144.248 20.9936 143.68 22.2882 143.679 23.6449C143.677 25.0021 144.242 26.3011 145.265 27.3301L147.393 25.2148C146.878 24.697 146.678 24.1415 146.679 23.6485C146.679 23.1552 146.881 22.604 147.39 22.0948L145.268 19.9735ZM145.271 27.3362C146.298 28.3565 147.596 28.9183 148.951 28.915C150.305 28.9118 151.599 28.3444 152.619 27.3243L150.498 25.203C149.989 25.7123 149.437 25.9139 148.944 25.915C148.451 25.9162 147.899 25.7177 147.387 25.2088L145.271 27.3362ZM152.618 27.326L155.492 24.4607L153.374 22.3362L150.5 25.2014L152.618 27.326ZM155.493 24.4591C157.6 22.3528 157.608 19.2234 155.484 17.0995L153.363 19.2208C154.315 20.1731 154.307 21.4031 153.372 22.3378L155.493 24.4591ZM155.484 17.0995C154.607 16.2219 153.488 15.7735 152.061 15.6546L151.812 18.6442C152.705 18.7187 153.098 18.9559 153.363 19.2208L155.484 17.0995ZM153.005 18.2021L154.174 17.0156L152.037 14.9102L150.868 16.0967L153.005 18.2021Z" fill="#D0D0D0" fill-opacity="0.9" mask="url(#path-4-outside-1_524_1940)"/>
</svg>
