<svg width="44" height="72" viewBox="0 0 44 72" fill="none" xmlns="http://www.w3.org/2000/svg">
<circle cx="31.134" cy="12.6614" r="12" transform="rotate(-0.0385132 31.134 12.6614)" fill="#aaaaaa"/>
<rect x="19.134" y="12.6694" width="24" height="12" transform="rotate(-0.0385132 19.134 12.6694)" fill="#444452"/>
<circle cx="31.134" cy="12.6614" r="8" transform="rotate(-0.0385132 31.134 12.6614)" fill="#444452"/>
<circle cx="31.1461" cy="30.6614" r="12" transform="rotate(179.961 31.1461 30.6614)" fill="#aaaaaa"/>
<rect x="43.1461" y="30.6533" width="24" height="12" transform="rotate(179.961 43.1461 30.6533)" fill="#444452"/>
<circle cx="31.1461" cy="30.6614" r="8" transform="rotate(179.961 31.1461 30.6614)" fill="#444452"/>
<circle cx="14.5544" cy="28.0246" r="14" fill="#aaaaaa"/>
<rect x="14.554" y="13.0247" width="31" height="14" transform="rotate(89.9986 14.554 13.0247)" fill="#444452"/>
<circle cx="14.5544" cy="28.0247" r="10" fill="#444452"/>
<circle cx="5.55417" cy="18.0248" r="4" fill="#aaaaaa"/>
<rect x="5.55408" y="14.0249" width="4" height="8" fill="#444452"/>
<rect x="1.55417" y="18.0249" width="4" height="4" fill="#444452"/>
<rect x="1.55417" y="18.0249" width="4" height="51" fill="#aaaaaa"/>
<rect x="5.55408" y="14.0249" width="9" height="4" fill="#aaaaaa"/>
<rect x="5.55466" y="38.0249" width="9" height="4" fill="#aaaaaa"/>
<circle cx="3.55541" cy="69.0249" r="2" fill="#aaaaaa"/>
<rect x="5.55417" y="18.0249" width="2" height="2" fill="#aaaaaa"/>
<circle cx="7.55422" cy="20.0249" r="2" fill="#444452"/>
<rect x="5.55466" y="38.0249" width="2" height="2" transform="rotate(-90.0014 5.55466 38.0249)" fill="#aaaaaa"/>
<circle cx="7.55461" cy="36.0249" r="2" transform="rotate(-90.0014 7.55461 36.0249)" fill="#444452"/>
<rect x="5.55475" y="42.0249" width="1" height="1" fill="#aaaaaa"/>
<circle cx="6.55477" cy="43.0249" r="1" fill="#444452"/>
<rect x="39.134" y="12.656" width="4" height="18" transform="rotate(-0.0385132 39.134 12.656)" fill="#aaaaaa"/>
</svg>
