<svg width="171" height="36" viewBox="0 0 171 36" fill="none" xmlns="http://www.w3.org/2000/svg">
<rect width="171" height="36" rx="8.5" fill="#83B4F9" fill-opacity="0.8"/>
<path d="M35.2498 11.968H36.8578V18.7H35.2498V11.968ZM28.1938 16.972H29.1658C31.3258 16.972 32.7298 16.924 34.3378 16.66L34.5178 17.932C32.8618 18.22 31.3858 18.256 29.1658 18.256H28.1938V16.972ZM28.1818 12.616H33.2938V16H29.7658V17.692H28.1938V14.812H31.7218V13.888H28.1818V12.616ZM33.1138 18.904C35.4658 18.904 36.9298 19.66 36.9298 20.992C36.9298 22.312 35.4658 23.08 33.1138 23.08C30.7618 23.08 29.3218 22.312 29.3218 20.992C29.3218 19.66 30.7618 18.904 33.1138 18.904ZM33.1138 20.14C31.6618 20.14 30.9058 20.404 30.9058 20.992C30.9058 21.568 31.6618 21.844 33.1138 21.844C34.5778 21.844 35.3338 21.568 35.3338 20.992C35.3338 20.404 34.5778 20.14 33.1138 20.14ZM39.7968 12.928H46.7928V14.2H39.7968V12.928ZM38.6688 20.452H48.7128V21.76H38.6688V20.452ZM46.1208 12.928H47.6928V14.212C47.6928 15.832 47.6928 17.368 47.1768 19.792L45.6048 19.648C46.1208 17.404 46.1208 15.784 46.1208 14.212V12.928ZM46.4568 15.976V17.152L39.6648 17.488L39.4728 16.204L46.4568 15.976ZM56.7999 11.944H58.4079V23.056H56.7999V11.944ZM57.9879 16.192H59.9439V17.5H57.9879V16.192ZM53.8839 13.096H55.4439C55.4439 16.432 54.1719 19.288 50.4759 21.148L49.5879 19.936C52.5039 18.424 53.8839 16.384 53.8839 13.372V13.096ZM50.1999 13.096H54.6999V14.38H50.1999V13.096ZM63.9342 17.44H73.9782V18.724H63.9342V17.44ZM68.1462 16.024H69.7422V17.716H68.1462V16.024ZM65.0502 19.48H72.7662V23.068H71.1702V20.74H65.0502V19.48ZM65.2182 12.232H66.7902V13.216H71.1222V12.232H72.7062V16.528H65.2182V12.232ZM66.7902 14.404V15.28H71.1222V14.404H66.7902ZM77.4692 12.808H78.7652V14.428C78.7652 17.176 77.8052 19.756 75.7052 20.788L74.7452 19.504C76.6172 18.628 77.4692 16.492 77.4692 14.428V12.808ZM77.7932 12.808H79.0652V14.428C79.0652 16.42 79.8572 18.448 81.6332 19.312L80.6732 20.584C78.6692 19.564 77.7932 17.092 77.7932 14.428V12.808ZM82.0772 11.956H83.6852V23.068H82.0772V11.956ZM83.3252 16.228H85.2932V17.56H83.3252V16.228ZM86.7683 16.456H92.5763V17.728H86.7683V16.456ZM88.8563 17.488H90.4643V19.828H88.8563V17.488ZM86.7683 12.94H92.5043V14.2H88.3643V16.852H86.7683V12.94ZM93.6923 11.944H95.2883V23.092H93.6923V11.944ZM86.2523 20.896L86.0603 19.612C88.1843 19.612 90.8003 19.6 93.0803 19.348L93.2003 20.512C90.8003 20.884 88.3163 20.908 86.2523 20.896ZM99.6794 18.604H100.891V19.024C100.891 20.728 100.147 22.288 98.4074 22.924L97.6274 21.76C99.0794 21.256 99.6794 20.128 99.6794 19.024V18.604ZM100.087 18.604H101.239V19.024C101.239 20.128 101.767 21.292 103.147 21.868L102.487 23.032C100.723 22.372 100.087 20.68 100.087 19.024V18.604ZM103.735 18.604H104.875V19.024C104.875 20.572 104.227 22.336 102.487 23.032L101.827 21.868C103.195 21.232 103.735 20.02 103.735 19.024V18.604ZM104.107 18.604H105.307V19.024C105.307 20.2 105.895 21.292 107.383 21.76L106.579 22.924C104.827 22.312 104.107 20.8 104.107 19.024V18.604ZM102.463 14.524H105.091V15.82H102.463V14.524ZM100.123 12.52C101.779 12.52 103.051 13.636 103.051 15.184C103.051 16.732 101.779 17.848 100.123 17.848C98.4554 17.848 97.1954 16.732 97.1954 15.184C97.1954 13.636 98.4554 12.52 100.123 12.52ZM100.123 13.84C99.3074 13.84 98.7194 14.344 98.7194 15.184C98.7194 16.024 99.3074 16.528 100.123 16.528C100.927 16.528 101.527 16.024 101.527 15.184C101.527 14.344 100.927 13.84 100.123 13.84ZM104.755 11.956H106.351V18.172H104.755V11.956ZM109.266 18.616H110.838V19.552H115.29V18.616H116.874V22.948H109.266V18.616ZM110.838 20.74V21.7H115.29V20.74H110.838ZM108.09 16.804H118.134V18.064H108.09V16.804ZM112.302 12.076H113.67V12.412C113.67 14.344 112.014 15.94 109.146 16.312L108.582 15.076C111.09 14.776 112.302 13.54 112.302 12.412V12.076ZM112.566 12.076H113.934V12.412C113.934 13.528 115.146 14.776 117.642 15.076L117.078 16.312C114.21 15.94 112.566 14.332 112.566 12.412V12.076ZM126.821 11.956H128.417V23.068H126.821V11.956ZM119.717 13.012H121.301V19.912H119.717V13.012ZM119.717 18.976H120.701C122.321 18.976 124.121 18.856 125.957 18.496L126.137 19.816C124.229 20.212 122.393 20.332 120.701 20.332H119.717V18.976ZM137.273 11.944H138.881V23.092H137.273V11.944ZM138.521 16.06H140.489V17.368H138.521V16.06ZM130.601 19.096H131.537C133.409 19.096 134.885 19.036 136.517 18.748L136.673 20.068C134.993 20.368 133.469 20.416 131.537 20.416H130.601V19.096ZM130.601 12.976H135.785V14.26H132.185V19.732H130.601V12.976ZM142.702 22.1172C142.169 22.1172 141.771 21.7129 141.771 21.1914C141.771 20.6699 142.169 20.2656 142.702 20.2656C143.241 20.2656 143.634 20.6699 143.634 21.1914C143.634 21.7129 143.241 22.1172 142.702 22.1172Z" fill="black"/>
</svg>
