<svg width="425" height="140" viewBox="0 0 425 140" fill="none" xmlns="http://www.w3.org/2000/svg">
<path d="M118.476 15.59C121.288 15.59 123.745 16.1347 125.848 17.224C127.976 18.288 129.61 19.8333 130.75 21.86C131.915 23.8613 132.498 26.2047 132.498 28.89C132.498 31.5753 131.915 33.906 130.75 35.882C129.61 37.858 127.976 39.378 125.848 40.442C123.745 41.4807 121.288 42 118.476 42H109.85V15.59H118.476ZM118.476 38.466C121.567 38.466 123.935 37.63 125.582 35.958C127.229 34.286 128.052 31.93 128.052 28.89C128.052 25.8247 127.229 23.4307 125.582 21.708C123.935 19.9853 121.567 19.124 118.476 19.124H114.182V38.466H118.476ZM145.113 42.342C143.137 42.342 141.351 41.8987 139.755 41.012C138.159 40.1 136.905 38.8333 135.993 37.212C135.081 35.5653 134.625 33.6653 134.625 31.512C134.625 29.384 135.094 27.4967 136.031 25.85C136.969 24.2033 138.248 22.9367 139.869 22.05C141.491 21.1633 143.302 20.72 145.303 20.72C147.305 20.72 149.116 21.1633 150.737 22.05C152.359 22.9367 153.638 24.2033 154.575 25.85C155.513 27.4967 155.981 29.384 155.981 31.512C155.981 33.64 155.5 35.5273 154.537 37.174C153.575 38.8207 152.257 40.1 150.585 41.012C148.939 41.8987 147.115 42.342 145.113 42.342ZM145.113 38.58C146.228 38.58 147.267 38.314 148.229 37.782C149.217 37.25 150.015 36.452 150.623 35.388C151.231 34.324 151.535 33.032 151.535 31.512C151.535 29.992 151.244 28.7127 150.661 27.674C150.079 26.61 149.306 25.812 148.343 25.28C147.381 24.748 146.342 24.482 145.227 24.482C144.113 24.482 143.074 24.748 142.111 25.28C141.174 25.812 140.427 26.61 139.869 27.674C139.312 28.7127 139.033 29.992 139.033 31.512C139.033 33.7667 139.603 35.5147 140.743 36.756C141.909 37.972 143.365 38.58 145.113 38.58ZM187.624 21.062L181.126 42H176.566L172.348 26.534L168.13 42H163.57L157.034 21.062H161.442L165.812 37.896L170.258 21.062H174.78L179.036 37.82L183.368 21.062H187.624ZM200.665 20.72C202.312 20.72 203.781 21.062 205.073 21.746C206.391 22.43 207.417 23.4433 208.151 24.786C208.886 26.1287 209.253 27.75 209.253 29.65V42H204.959V30.296C204.959 28.4213 204.491 26.99 203.553 26.002C202.616 24.9887 201.337 24.482 199.715 24.482C198.094 24.482 196.802 24.9887 195.839 26.002C194.902 26.99 194.433 28.4213 194.433 30.296V42H190.101V21.062H194.433V23.456C195.143 22.5947 196.042 21.9233 197.131 21.442C198.246 20.9607 199.424 20.72 200.665 20.72ZM218.351 13.88V42H214.019V13.88H218.351ZM232.361 42.342C230.385 42.342 228.599 41.8987 227.003 41.012C225.407 40.1 224.153 38.8333 223.241 37.212C222.329 35.5653 221.873 33.6653 221.873 31.512C221.873 29.384 222.341 27.4967 223.279 25.85C224.216 24.2033 225.495 22.9367 227.117 22.05C228.738 21.1633 230.549 20.72 232.551 20.72C234.552 20.72 236.363 21.1633 237.985 22.05C239.606 22.9367 240.885 24.2033 241.823 25.85C242.76 27.4967 243.229 29.384 243.229 31.512C243.229 33.64 242.747 35.5273 241.785 37.174C240.822 38.8207 239.505 40.1 237.833 41.012C236.186 41.8987 234.362 42.342 232.361 42.342ZM232.361 38.58C233.475 38.58 234.514 38.314 235.477 37.782C236.465 37.25 237.263 36.452 237.871 35.388C238.479 34.324 238.783 33.032 238.783 31.512C238.783 29.992 238.491 28.7127 237.909 27.674C237.326 26.61 236.553 25.812 235.591 25.28C234.628 24.748 233.589 24.482 232.475 24.482C231.36 24.482 230.321 24.748 229.359 25.28C228.421 25.812 227.674 26.61 227.117 27.674C226.559 28.7127 226.281 29.992 226.281 31.512C226.281 33.7667 226.851 35.5147 227.991 36.756C229.156 37.972 230.613 38.58 232.361 38.58ZM245.307 31.436C245.307 29.3333 245.738 27.4713 246.599 25.85C247.486 24.2287 248.676 22.9747 250.171 22.088C251.691 21.176 253.363 20.72 255.187 20.72C256.834 20.72 258.265 21.0493 259.481 21.708C260.722 22.3413 261.71 23.1393 262.445 24.102V21.062H266.815V42H262.445V38.884C261.71 39.872 260.71 40.6953 259.443 41.354C258.176 42.0127 256.732 42.342 255.111 42.342C253.312 42.342 251.666 41.886 250.171 40.974C248.676 40.0367 247.486 38.7447 246.599 37.098C245.738 35.426 245.307 33.5387 245.307 31.436ZM262.445 31.512C262.445 30.068 262.141 28.814 261.533 27.75C260.95 26.686 260.178 25.8753 259.215 25.318C258.252 24.7607 257.214 24.482 256.099 24.482C254.984 24.482 253.946 24.7607 252.983 25.318C252.02 25.85 251.235 26.648 250.627 27.712C250.044 28.7507 249.753 29.992 249.753 31.436C249.753 32.88 250.044 34.1467 250.627 35.236C251.235 36.3253 252.02 37.1613 252.983 37.744C253.971 38.3013 255.01 38.58 256.099 38.58C257.214 38.58 258.252 38.3013 259.215 37.744C260.178 37.1867 260.95 36.376 261.533 35.312C262.141 34.2227 262.445 32.956 262.445 31.512ZM270.301 31.436C270.301 29.3333 270.732 27.4713 271.593 25.85C272.48 24.2287 273.67 22.9747 275.165 22.088C276.685 21.176 278.37 20.72 280.219 20.72C281.587 20.72 282.93 21.024 284.247 21.632C285.59 22.2147 286.654 23 287.439 23.988V13.88H291.809V42H287.439V38.846C286.73 39.8593 285.742 40.6953 284.475 41.354C283.234 42.0127 281.802 42.342 280.181 42.342C278.357 42.342 276.685 41.886 275.165 40.974C273.67 40.0367 272.48 38.7447 271.593 37.098C270.732 35.426 270.301 33.5387 270.301 31.436ZM287.439 31.512C287.439 30.068 287.135 28.814 286.527 27.75C285.944 26.686 285.172 25.8753 284.209 25.318C283.246 24.7607 282.208 24.482 281.093 24.482C279.978 24.482 278.94 24.7607 277.977 25.318C277.014 25.85 276.229 26.648 275.621 27.712C275.038 28.7507 274.747 29.992 274.747 31.436C274.747 32.88 275.038 34.1467 275.621 35.236C276.229 36.3253 277.014 37.1613 277.977 37.744C278.965 38.3013 280.004 38.58 281.093 38.58C282.208 38.58 283.246 38.3013 284.209 37.744C285.172 37.1867 285.944 36.376 286.527 35.312C287.135 34.2227 287.439 32.956 287.439 31.512ZM314.932 42.342C312.956 42.342 311.17 41.8987 309.574 41.012C307.978 40.1 306.724 38.8333 305.812 37.212C304.9 35.5653 304.444 33.6653 304.444 31.512C304.444 29.384 304.913 27.4967 305.85 25.85C306.787 24.2033 308.067 22.9367 309.688 22.05C311.309 21.1633 313.121 20.72 315.122 20.72C317.123 20.72 318.935 21.1633 320.556 22.05C322.177 22.9367 323.457 24.2033 324.394 25.85C325.331 27.4967 325.8 29.384 325.8 31.512C325.8 33.64 325.319 35.5273 324.356 37.174C323.393 38.8207 322.076 40.1 320.404 41.012C318.757 41.8987 316.933 42.342 314.932 42.342ZM314.932 38.58C316.047 38.58 317.085 38.314 318.048 37.782C319.036 37.25 319.834 36.452 320.442 35.388C321.05 34.324 321.354 33.032 321.354 31.512C321.354 29.992 321.063 28.7127 320.48 27.674C319.897 26.61 319.125 25.812 318.162 25.28C317.199 24.748 316.161 24.482 315.046 24.482C313.931 24.482 312.893 24.748 311.93 25.28C310.993 25.812 310.245 26.61 309.688 27.674C309.131 28.7127 308.852 29.992 308.852 31.512C308.852 33.7667 309.422 35.5147 310.562 36.756C311.727 37.972 313.184 38.58 314.932 38.58ZM339.886 20.72C341.533 20.72 343.002 21.062 344.294 21.746C345.612 22.43 346.638 23.4433 347.372 24.786C348.107 26.1287 348.474 27.75 348.474 29.65V42H344.18V30.296C344.18 28.4213 343.712 26.99 342.774 26.002C341.837 24.9887 340.558 24.482 338.936 24.482C337.315 24.482 336.023 24.9887 335.06 26.002C334.123 26.99 333.654 28.4213 333.654 30.296V42H329.322V21.062H333.654V23.456C334.364 22.5947 335.263 21.9233 336.352 21.442C337.467 20.9607 338.645 20.72 339.886 20.72ZM367.405 24.596V36.186C367.405 36.9713 367.582 37.5413 367.937 37.896C368.317 38.2253 368.95 38.39 369.837 38.39H372.497V42H369.077C367.126 42 365.632 41.544 364.593 40.632C363.554 39.72 363.035 38.238 363.035 36.186V24.596H360.565V21.062H363.035V15.856H367.405V21.062H372.497V24.596H367.405ZM386.56 20.72C388.156 20.72 389.574 21.062 390.816 21.746C392.082 22.43 393.07 23.4433 393.78 24.786C394.514 26.1287 394.882 27.75 394.882 29.65V42H390.588V30.296C390.588 28.4213 390.119 26.99 389.182 26.002C388.244 24.9887 386.965 24.482 385.344 24.482C383.722 24.482 382.43 24.9887 381.468 26.002C380.53 26.99 380.062 28.4213 380.062 30.296V42H375.73V13.88H380.062V23.494C380.796 22.6073 381.721 21.9233 382.836 21.442C383.976 20.9607 385.217 20.72 386.56 20.72ZM418.837 31.018C418.837 31.8033 418.787 32.5127 418.685 33.146H402.687C402.814 34.818 403.435 36.1607 404.549 37.174C405.664 38.1873 407.032 38.694 408.653 38.694C410.984 38.694 412.631 37.7187 413.593 35.768H418.267C417.634 37.6933 416.481 39.2767 414.809 40.518C413.163 41.734 411.111 42.342 408.653 42.342C406.652 42.342 404.853 41.8987 403.257 41.012C401.687 40.1 400.445 38.8333 399.533 37.212C398.647 35.5653 398.203 33.6653 398.203 31.512C398.203 29.3587 398.634 27.4713 399.495 25.85C400.382 24.2033 401.611 22.9367 403.181 22.05C404.777 21.1633 406.601 20.72 408.653 20.72C410.629 20.72 412.39 21.1507 413.935 22.012C415.481 22.8733 416.684 24.0893 417.545 25.66C418.407 27.2053 418.837 28.9913 418.837 31.018ZM414.315 29.65C414.29 28.054 413.72 26.7747 412.605 25.812C411.491 24.8493 410.11 24.368 408.463 24.368C406.969 24.368 405.689 24.8493 404.625 25.812C403.561 26.7493 402.928 28.0287 402.725 29.65H414.315Z" fill="white"/>
<path d="M128.79 102.69H109.33L106.11 112H95.82L113.39 63.07H124.8L142.37 112H132.01L128.79 102.69ZM126.13 94.85L119.06 74.41L111.99 94.85H126.13ZM156.637 78.82C157.897 77.0467 159.624 75.5767 161.817 74.41C164.057 73.1967 166.601 72.59 169.447 72.59C172.761 72.59 175.747 73.4067 178.407 75.04C181.114 76.6733 183.237 79.0067 184.777 82.04C186.364 85.0267 187.157 88.5033 187.157 92.47C187.157 96.4367 186.364 99.96 184.777 103.04C183.237 106.073 181.114 108.43 178.407 110.11C175.747 111.79 172.761 112.63 169.447 112.63C166.601 112.63 164.081 112.047 161.887 110.88C159.741 109.713 157.991 108.243 156.637 106.47V130.48H146.837V73.22H156.637V78.82ZM177.147 92.47C177.147 90.1367 176.657 88.13 175.677 86.45C174.744 84.7233 173.484 83.4167 171.897 82.53C170.357 81.6433 168.677 81.2 166.857 81.2C165.084 81.2 163.404 81.6667 161.817 82.6C160.277 83.4867 159.017 84.7933 158.037 86.52C157.104 88.2467 156.637 90.2767 156.637 92.61C156.637 94.9433 157.104 96.9733 158.037 98.7C159.017 100.427 160.277 101.757 161.817 102.69C163.404 103.577 165.084 104.02 166.857 104.02C168.677 104.02 170.357 103.553 171.897 102.62C173.484 101.687 174.744 100.357 175.677 98.63C176.657 96.9033 177.147 94.85 177.147 92.47ZM201.979 78.82C203.239 77.0467 204.965 75.5767 207.159 74.41C209.399 73.1967 211.942 72.59 214.789 72.59C218.102 72.59 221.089 73.4067 223.749 75.04C226.455 76.6733 228.579 79.0067 230.119 82.04C231.705 85.0267 232.499 88.5033 232.499 92.47C232.499 96.4367 231.705 99.96 230.119 103.04C228.579 106.073 226.455 108.43 223.749 110.11C221.089 111.79 218.102 112.63 214.789 112.63C211.942 112.63 209.422 112.047 207.229 110.88C205.082 109.713 203.332 108.243 201.979 106.47V130.48H192.179V73.22H201.979V78.82ZM222.489 92.47C222.489 90.1367 221.999 88.13 221.019 86.45C220.085 84.7233 218.825 83.4167 217.239 82.53C215.699 81.6433 214.019 81.2 212.199 81.2C210.425 81.2 208.745 81.6667 207.159 82.6C205.619 83.4867 204.359 84.7933 203.379 86.52C202.445 88.2467 201.979 90.2767 201.979 92.61C201.979 94.9433 202.445 96.9733 203.379 98.7C204.359 100.427 205.619 101.757 207.159 102.69C208.745 103.577 210.425 104.02 212.199 104.02C214.019 104.02 215.699 103.553 217.239 102.62C218.825 101.687 220.085 100.357 221.019 98.63C221.999 96.9033 222.489 94.85 222.489 92.47ZM268.97 112.49C265.563 112.49 262.483 111.907 259.73 110.74C257.023 109.573 254.877 107.893 253.29 105.7C251.703 103.507 250.887 100.917 250.84 97.93H261.34C261.48 99.9367 262.18 101.523 263.44 102.69C264.747 103.857 266.52 104.44 268.76 104.44C271.047 104.44 272.843 103.903 274.15 102.83C275.457 101.71 276.11 100.263 276.11 98.49C276.11 97.0433 275.667 95.8533 274.78 94.92C273.893 93.9867 272.773 93.2633 271.42 92.75C270.113 92.19 268.293 91.5833 265.96 90.93C262.787 89.9967 260.197 89.0867 258.19 88.2C256.23 87.2667 254.527 85.89 253.08 84.07C251.68 82.2033 250.98 79.73 250.98 76.65C250.98 73.7567 251.703 71.2367 253.15 69.09C254.597 66.9433 256.627 65.31 259.24 64.19C261.853 63.0233 264.84 62.44 268.2 62.44C273.24 62.44 277.323 63.6767 280.45 66.15C283.623 68.5767 285.373 71.9833 285.7 76.37H274.92C274.827 74.69 274.103 73.3133 272.75 72.24C271.443 71.12 269.693 70.56 267.5 70.56C265.587 70.56 264.047 71.05 262.88 72.03C261.76 73.01 261.2 74.4333 261.2 76.3C261.2 77.6067 261.62 78.7033 262.46 79.59C263.347 80.43 264.42 81.13 265.68 81.69C266.987 82.2033 268.807 82.81 271.14 83.51C274.313 84.4433 276.903 85.3767 278.91 86.31C280.917 87.2433 282.643 88.6433 284.09 90.51C285.537 92.3767 286.26 94.8267 286.26 97.86C286.26 100.473 285.583 102.9 284.23 105.14C282.877 107.38 280.893 109.177 278.28 110.53C275.667 111.837 272.563 112.49 268.97 112.49ZM304.066 81.27V100.03C304.066 101.337 304.37 102.293 304.976 102.9C305.63 103.46 306.703 103.74 308.196 103.74H312.746V112H306.586C298.326 112 294.196 107.987 294.196 99.96V81.27H289.576V73.22H294.196V63.63H304.066V73.22H312.746V81.27H304.066ZM334.915 112.63C331.182 112.63 327.822 111.813 324.835 110.18C321.848 108.5 319.492 106.143 317.765 103.11C316.085 100.077 315.245 96.5767 315.245 92.61C315.245 88.6433 316.108 85.1433 317.835 82.11C319.608 79.0767 322.012 76.7433 325.045 75.11C328.078 73.43 331.462 72.59 335.195 72.59C338.928 72.59 342.312 73.43 345.345 75.11C348.378 76.7433 350.758 79.0767 352.485 82.11C354.258 85.1433 355.145 88.6433 355.145 92.61C355.145 96.5767 354.235 100.077 352.415 103.11C350.642 106.143 348.215 108.5 345.135 110.18C342.102 111.813 338.695 112.63 334.915 112.63ZM334.915 104.09C336.688 104.09 338.345 103.67 339.885 102.83C341.472 101.943 342.732 100.637 343.665 98.91C344.598 97.1833 345.065 95.0833 345.065 92.61C345.065 88.9233 344.085 86.1 342.125 84.14C340.212 82.1333 337.855 81.13 335.055 81.13C332.255 81.13 329.898 82.1333 327.985 84.14C326.118 86.1 325.185 88.9233 325.185 92.61C325.185 96.2967 326.095 99.1433 327.915 101.15C329.782 103.11 332.115 104.09 334.915 104.09ZM370.034 79.24C371.294 77.1867 372.927 75.5767 374.934 74.41C376.987 73.2433 379.32 72.66 381.934 72.66V82.95H379.344C376.264 82.95 373.93 83.6733 372.344 85.12C370.804 86.5667 370.034 89.0867 370.034 92.68V112H360.234V73.22H370.034V79.24ZM422.484 91.77C422.484 93.17 422.391 94.43 422.204 95.55H393.854C394.088 98.35 395.068 100.543 396.794 102.13C398.521 103.717 400.644 104.51 403.164 104.51C406.804 104.51 409.394 102.947 410.934 99.82H421.504C420.384 103.553 418.238 106.633 415.064 109.06C411.891 111.44 407.994 112.63 403.374 112.63C399.641 112.63 396.281 111.813 393.294 110.18C390.354 108.5 388.044 106.143 386.364 103.11C384.731 100.077 383.914 96.5767 383.914 92.61C383.914 88.5967 384.731 85.0733 386.364 82.04C387.998 79.0067 390.284 76.6733 393.224 75.04C396.164 73.4067 399.548 72.59 403.374 72.59C407.061 72.59 410.351 73.3833 413.244 74.97C416.184 76.5567 418.448 78.82 420.034 81.76C421.668 84.6533 422.484 87.99 422.484 91.77ZM412.334 88.97C412.288 86.45 411.378 84.4433 409.604 82.95C407.831 81.41 405.661 80.64 403.094 80.64C400.668 80.64 398.614 81.3867 396.934 82.88C395.301 84.3267 394.298 86.3567 393.924 88.97H412.334Z" fill="white"/>
<path d="M60.0053 12C60.238 12 60.4708 12 60.7167 12C61.2875 19.0522 58.5957 24.3216 55.3243 28.1375C52.1144 31.9271 47.7188 35.6025 40.6095 35.0448C40.1353 28.0936 42.8315 23.215 46.0985 19.4079C49.1284 15.8598 54.6832 12.7026 60.0053 12Z" fill="white"/>
<path d="M81.5264 85.4027C81.5264 85.473 81.5264 85.5345 81.5264 85.6003C79.5284 91.6513 76.6785 96.8373 73.2007 101.65C70.0259 106.019 66.1353 111.899 59.1885 111.899C53.1858 111.899 49.1986 108.039 43.0466 107.934C36.5389 107.828 32.9601 111.161 27.0101 112C26.3294 112 25.6488 112 24.9813 112C20.6121 111.368 17.086 107.907 14.5172 104.79C6.94243 95.577 1.08901 83.677 0 68.4484C0 66.9554 0 65.4668 0 63.9738C0.461072 53.075 5.75682 44.2136 12.7959 39.919C16.5108 37.6356 21.6177 35.6903 27.3043 36.5598C29.7414 36.9374 32.2311 37.7718 34.4136 38.5973C36.4818 39.3921 39.0682 40.8017 41.5185 40.727C43.1783 40.6787 44.8294 39.8136 46.5024 39.2033C51.403 37.4336 56.2069 35.4049 62.539 36.3578C70.1489 37.5083 75.55 40.8895 78.8873 46.1062C72.4498 50.2031 67.3605 56.3771 68.2299 66.9203C69.0028 76.4974 74.5708 82.1006 81.5264 85.4027Z" fill="white"/>
</svg>
