<?xml version="1.0" standalone="no"?>
<!DOCTYPE svg PUBLIC "-//W3C//DTD SVG 20010904//EN"
 "http://www.w3.org/TR/2001/REC-SVG-20010904/DTD/svg10.dtd">
<svg version="1.0" xmlns="http://www.w3.org/2000/svg"
 width="751.000000pt" height="1381.000000pt" viewBox="0 0 751.000000 1381.000000"
 preserveAspectRatio="xMidYMid meet">

<g transform="translate(0.000000,1381.000000) scale(0.100000,-0.100000)"
fill="#aaaaaa" stroke="none">
<path d="M4820 13804 c-19 -2 -73 -9 -120 -14 -621 -75 -1197 -390 -1615 -885
-90 -107 -230 -319 -298 -452 -129 -253 -210 -511 -258 -823 -17 -112 -24
-747 -9 -824 37 -193 197 -355 388 -395 243 -51 486 87 574 326 20 54 22 83
28 408 6 308 9 362 29 455 68 320 206 568 442 795 121 116 220 185 374 260
130 64 222 96 365 126 87 19 136 23 290 23 199 0 308 -17 470 -70 101 -33 277
-121 375 -186 98 -65 268 -227 345 -328 163 -215 269 -478 300 -745 8 -72 10
-646 8 -2055 l-4 -1955 -22 -100 c-75 -325 -209 -565 -443 -790 -207 -198
-447 -324 -739 -386 -151 -32 -429 -32 -580 0 -292 62 -532 188 -739 386 -236
227 -374 475 -442 795 -20 92 -23 147 -29 450 -6 320 -8 349 -28 403 -74 201
-264 337 -472 337 -234 0 -445 -175 -490 -406 -15 -77 -8 -702 9 -814 74 -483
245 -885 531 -1245 81 -103 282 -304 385 -385 365 -289 779 -464 1260 -532
117 -17 493 -17 610 0 510 72 950 267 1320 584 476 409 765 946 857 1593 19
131 19 4129 0 4260 -59 414 -184 749 -402 1078 -187 282 -415 509 -697 697
-324 215 -661 342 -1063 400 -78 11 -448 21 -510 14z"/>
<path d="M380 9984 c-166 -44 -290 -158 -353 -322 l-22 -57 -3 -4580 c-2
-4087 0 -4586 13 -4640 24 -94 64 -164 135 -236 156 -157 381 -192 590 -92 70
34 177 141 212 213 62 125 58 -17 58 2202 l0 2027 1008 4 c968 3 1012 4 1149
25 78 12 167 30 198 41 197 69 335 264 335 471 0 239 -180 451 -418 492 -72
12 -72 12 -347 -22 -38 -5 -487 -9 -997 -10 l-928 0 0 1750 0 1750 923 0 c566
0 957 -4 1012 -10 895 -103 1567 -852 1565 -1745 -1 -55 -5 -131 -10 -170 -20
-144 -23 -204 -11 -267 46 -233 256 -408 491 -408 183 0 371 117 447 280 105
222 109 789 9 1204 -79 326 -202 608 -391 891 -116 175 -218 296 -376 450
-415 403 -916 651 -1505 747 -138 22 -146 22 -1434 25 -1118 2 -1303 0 -1350
-13z"/>
</g>
</svg>
